<svg width="200" height="80" viewBox="0 0 225 80" fill="none" xmlns="http://www.w3.org/2000/svg">
  <!-- logo part -->
  <style>.a{fill:none;stroke:#443710;stroke-width:2}.b{fill:none;stroke:#634400;stroke-width:1.5}.c{fill:#855a00}</style><path fill-rule="evenodd" class="a" d="m40 72c-17.7 0-32-14.3-32-32 0-17.7 14.3-32 32-32 17.7 0 32 14.3 32 32 0 17.7-14.3 32-32 32z"/><path fill-rule="evenodd" class="b" d="m40 64c-13.3 0-24-10.7-24-24 0-13.3 10.7-24 24-24 13.3 0 24 10.7 24 24 0 13.3-10.7 24-24 24z"/><path class="c" d="m25.1 50.1q1.7 0 3.8-10.7 0.4-1.7 0.6-2.6 1.6-8 3.7-11.5 2.1-3.4 5.3-3.4 1.3 0 1.9 0.6 0.7 0.7 0.5 1.7-0.2 0.8-0.8 1.3-0.5 0.5-1.4 0.5-0.7 0-1-0.3-0.4-0.3-0.5-0.8-0.1-0.3 0-0.8 0-0.6-0.3-0.6-1.6 0-3.6 9.7-0.6 3-1 4.7-1.6 7.4-3.7 10.7-2 3.2-5.1 3.2-1.2 0-1.9-0.7-0.7-0.6-0.5-1.6 0.2-0.9 0.8-1.4 0.6-0.5 1.6-0.5 0.5 0 0.8 0.3 0.3 0.2 0.5 0.6 0.1 0.3 0.1 0.9-0.1 0.7 0.2 0.7z"/><path fill-rule="evenodd" class="c" d="m47.7 33.5l-2.6 14.4h1.7l-0.2 1.1h-3.6l0.3-1.7q-0.7 1-1.7 1.5-0.9 0.5-2.1 0.5-2 0-3-1.6-1-1.5-0.5-4 0.5-2.5 2-4 1.5-1.6 3.5-1.6 1.3 0 2 0.5 0.8 0.5 1.2 1.5l1-5.5h-1.8l0.2-1.1zm-3.8 10.7l0.2-1q0.3-1.9-0.3-2.9-0.5-1-1.9-1-1.5 0-2.4 1.1-0.9 1.1-1.3 3.3-0.4 2.2 0.1 3.3 0.5 1.1 1.9 1.1 1.5 0 2.4-1 0.9-1 1.3-2.9zm11.3-6l-0.4-2.2q-0.2-0.9-0.5-1.2-0.3-0.3-0.9-0.3-0.6 0-0.9 0.2-0.4 0.3-0.5 1h-1l0.4-2q0.5-0.1 1-0.2 0.5-0.1 1-0.1 1.1 0 1.7 0.4 0.5 0.5 0.8 1.7l2.6 12.4h1.2l-0.2 1.1h-4l0.2-1.1h1.6l-1.5-7.3-4.5 7.3h1.7l-0.2 1.1h-5l0.2-1.1h1.3z"/>
  
  <!-- text part -->
  <text x="80" y="35" font-family="monospace" font-size="18" font-weight="bold" fill="#cd9a43">Rambling Note</text>
  <text x="80" y="52" font-family="monospace" font-size="10" fill="#9B8A73">亂講話的地方</text>

  <!-- line separate the text -->
  <line x1="80" y1="42" x2="210" y2="42" stroke="#443710" stroke-width="1"/>
</svg>